<?xml version="1.0" encoding="UTF-8" standalone="no"?>
<!-- Generator: Adobe Illustrator 16.0.0, SVG Export Plug-In . SVG Version: 6.00 Build 0)  -->

<svg
   version="1.1"
   id="Capa_1"
   x="0px"
   y="0px"
   width="14.999999"
   height="15.000001"
   viewBox="0 0 15 15.000001"
   xml:space="preserve"
   sodipodi:docname="location.svg"
   inkscape:version="1.1 (c68e22c387, 2021-05-23)"
   xmlns:inkscape="http://www.inkscape.org/namespaces/inkscape"
   xmlns:sodipodi="http://sodipodi.sourceforge.net/DTD/sodipodi-0.dtd"
   xmlns="http://www.w3.org/2000/svg"
   xmlns:svg="http://www.w3.org/2000/svg"><defs
   id="defs900" /><sodipodi:namedview
   id="namedview898"
   pagecolor="#ffffff"
   bordercolor="#999999"
   borderopacity="1"
   inkscape:pageshadow="0"
   inkscape:pageopacity="0"
   inkscape:pagecheckerboard="0"
   showgrid="false"
   width="41.45254px"
   fit-margin-top="0"
   fit-margin-left="0"
   fit-margin-right="0"
   fit-margin-bottom="0"
   inkscape:zoom="19.033948"
   inkscape:cx="12.635319"
   inkscape:cy="8.2221514"
   inkscape:window-width="1920"
   inkscape:window-height="1017"
   inkscape:window-x="-8"
   inkscape:window-y="-8"
   inkscape:window-maximized="1"
   inkscape:current-layer="Capa_1" />
<g
   id="g865"
   transform="matrix(0.05461536,0,0,0.03790655,-3.3059224,0)"
   style="fill:#2f89fc;fill-opacity:1">
	<path
   d="M 197.849,0 C 122.131,0 60.531,61.609 60.531,137.329 c 0,72.887 124.591,243.177 129.896,250.388 l 4.951,6.738 c 0.579,0.792 1.501,1.255 2.471,1.255 0.985,0 1.901,-0.463 2.486,-1.255 l 4.948,-6.738 C 210.591,380.506 335.179,210.216 335.179,137.329 335.179,61.609 273.569,0 197.849,0 Z m 0,88.138 c 27.13,0 49.191,22.062 49.191,49.191 0,27.115 -22.062,49.191 -49.191,49.191 -27.114,0 -49.191,-22.076 -49.191,-49.191 0,-27.129 22.076,-49.191 49.191,-49.191 z"
   id="path863"
   style="fill:#2f89fc;fill-opacity:1" />
</g>
<g
   id="g867"
   transform="translate(-177.12873,-169.22148)">
</g>
<g
   id="g869"
   transform="translate(-177.12873,-169.22148)">
</g>
<g
   id="g871"
   transform="translate(-177.12873,-169.22148)">
</g>
<g
   id="g873"
   transform="translate(-177.12873,-169.22148)">
</g>
<g
   id="g875"
   transform="translate(-177.12873,-169.22148)">
</g>
<g
   id="g877"
   transform="translate(-177.12873,-169.22148)">
</g>
<g
   id="g879"
   transform="translate(-177.12873,-169.22148)">
</g>
<g
   id="g881"
   transform="translate(-177.12873,-169.22148)">
</g>
<g
   id="g883"
   transform="translate(-177.12873,-169.22148)">
</g>
<g
   id="g885"
   transform="translate(-177.12873,-169.22148)">
</g>
<g
   id="g887"
   transform="translate(-177.12873,-169.22148)">
</g>
<g
   id="g889"
   transform="translate(-177.12873,-169.22148)">
</g>
<g
   id="g891"
   transform="translate(-177.12873,-169.22148)">
</g>
<g
   id="g893"
   transform="translate(-177.12873,-169.22148)">
</g>
<g
   id="g895"
   transform="translate(-177.12873,-169.22148)">
</g>
</svg>
