<?xml version="1.0" encoding="UTF-8" standalone="no"?>
<!-- Generator: Adobe Illustrator 19.0.0, SVG Export Plug-In . SVG Version: 6.00 Build 0)  -->

<svg
   version="1.1"
   id="Capa_1"
   x="0px"
   y="0px"
   viewBox="0 0 55.867 55.867"
   style="enable-background:new 0 0 55.867 55.867;"
   xml:space="preserve"
   sodipodi:docname="star-yellow.svg"
   inkscape:version="1.1 (c68e22c387, 2021-05-23)"
   xmlns:inkscape="http://www.inkscape.org/namespaces/inkscape"
   xmlns:sodipodi="http://sodipodi.sourceforge.net/DTD/sodipodi-0.dtd"
   xmlns="http://www.w3.org/2000/svg"
   xmlns:svg="http://www.w3.org/2000/svg"><defs
   id="defs37" /><sodipodi:namedview
   id="namedview35"
   pagecolor="#ffffff"
   bordercolor="#999999"
   borderopacity="1"
   inkscape:pageshadow="0"
   inkscape:pageopacity="0"
   inkscape:pagecheckerboard="0"
   showgrid="false"
   inkscape:zoom="13.47844"
   inkscape:cx="27.9335"
   inkscape:cy="27.9335"
   inkscape:window-width="1920"
   inkscape:window-height="1017"
   inkscape:window-x="-8"
   inkscape:window-y="-8"
   inkscape:window-maximized="1"
   inkscape:current-layer="Capa_1" />
<path
   d="M55.818,21.578c-0.118-0.362-0.431-0.626-0.808-0.681L36.92,18.268L28.83,1.876c-0.168-0.342-0.516-0.558-0.896-0.558  s-0.729,0.216-0.896,0.558l-8.091,16.393l-18.09,2.629c-0.377,0.055-0.689,0.318-0.808,0.681c-0.117,0.361-0.02,0.759,0.253,1.024  l13.091,12.76l-3.091,18.018c-0.064,0.375,0.09,0.754,0.397,0.978c0.309,0.226,0.718,0.255,1.053,0.076l16.182-8.506l16.18,8.506  c0.146,0.077,0.307,0.115,0.466,0.115c0.207,0,0.413-0.064,0.588-0.191c0.308-0.224,0.462-0.603,0.397-0.978l-3.09-18.017  l13.091-12.761C55.838,22.336,55.936,21.939,55.818,21.578z"
   id="path2"
   style="fill:#ffb92d;fill-opacity:1" />
<g
   id="g4">
</g>
<g
   id="g6">
</g>
<g
   id="g8">
</g>
<g
   id="g10">
</g>
<g
   id="g12">
</g>
<g
   id="g14">
</g>
<g
   id="g16">
</g>
<g
   id="g18">
</g>
<g
   id="g20">
</g>
<g
   id="g22">
</g>
<g
   id="g24">
</g>
<g
   id="g26">
</g>
<g
   id="g28">
</g>
<g
   id="g30">
</g>
<g
   id="g32">
</g>
</svg>
